Coordinates
version=1
nRows=14
nColumns=38
inDegrees=no

Units are S.I. units (second, meters, Newtons, ...)
If the header above contains a line with 'inDegrees', this indicates whether rotational values are in degrees (yes) or radians (no).

endheader
time	pelvis_tilt	pelvis_list	pelvis_rotation	pelvis_tx	pelvis_ty	pelvis_tz	hip_flexion_r	hip_adduction_r	hip_rotation_r	knee_angle_r	ankle_angle_r	subtalar_angle_r	mtp_angle_r	hip_flexion_l	hip_adduction_l	hip_rotation_l	knee_angle_l	ankle_angle_l	subtalar_angle_l	mtp_angle_l	lumbar_extension	lumbar_bending	lumbar_rotation	arm_flex_r	arm_add_r	arm_rot_r	elbow_flex_r	pro_sup_r	wrist_flex_r	wrist_dev_r	arm_flex_l	arm_add_l	arm_rot_l	elbow_flex_l	pro_sup_l	wrist_flex_l	wrist_dev_l
15	2.8482	1.49008	-0.976122	0.716145	1.0651	0.974565	0.281789	-0.0509381	-0.3309	0.308694	-0.163303	0	0	-0.069735	0.00999506	-0.0161141	0.198712	0.151026	0	0	0.0336948	0.0327506	-0.251169	0.829631	-0.182872	-1.5708	0	0	0	0	0.489574	-0.177004	0.259943	1.11177	1.49987	0	0
15.01	2.8929	1.49157	-1.02845	0.717914	1.06081	0.974624	0.28751	-0.0535424	-0.32933	0.308931	-0.170789	0	0	-0.0678095	0.0139389	-0.0215694	0.19534	0.145891	0	0	0.0320457	0.0272104	-0.257022	0.832711	-0.157281	-1.5708	0	0	0	0	0.487067	-0.207928	0.383463	1.05038	1.5708	0	0
15.02	2.92626	1.49254	-1.06172	0.716727	1.05583	0.974408	0.29247	-0.0615933	-0.329737	0.309519	-0.176346	0	0	-0.0633986	0.0204069	-0.0260281	0.193127	0.141196	0	0	0.0283832	0.0248751	-0.243961	0.83436	-0.180117	-1.5708	0	0	0	0	0.500197	-0.202525	0.408284	1.04676	1.5708	0	0
15.03	2.96236	1.49408	-1.10051	0.716413	1.05067	0.974303	0.298198	-0.0676377	-0.330463	0.310094	-0.181572	0	0	-0.0596246	0.0256113	-0.0300747	0.190077	0.136121	0	0	0.0262858	0.0211413	-0.238601	0.836331	-0.184276	-1.5708	0	0	0	0	0.505318	-0.201144	0.413925	1.04362	1.5708	0	0
15.04	2.99429	1.49556	-1.13527	0.716442	1.04576	0.974215	0.304134	-0.073195	-0.33147	0.310586	-0.185594	0	0	-0.0556747	0.0303464	-0.0332772	0.186695	0.130614	0	0	0.0246283	0.0176437	-0.23535	0.838474	-0.18446	-1.5708	0	0	0	0	0.508671	-0.200284	0.415243	1.04168	1.5708	0	0
15.05	3.01577	1.49697	-1.15955	0.716473	1.04085	0.974083	0.310293	-0.0781371	-0.332188	0.311088	-0.188264	0	0	-0.0512033	0.0343443	-0.0363132	0.183408	0.1251	0	0	0.0234472	0.0151893	-0.232816	0.840979	-0.184244	-1.5708	0	0	0	0	0.511459	-0.199767	0.416087	1.04015	1.5708	0	0
15.06	3.03949	1.49848	-1.18994	0.718529	1.03697	0.974207	0.31746	-0.0798229	-0.331676	0.312316	-0.190303	0	0	-0.0473022	0.0361518	-0.0388197	0.180142	0.119248	0	0	0.0246378	0.0099866	-0.237339	0.841402	-0.159874	-1.5708	0	0	0	0	0.510961	-0.208691	0.415869	1.03163	1.5708	0	0
15.07	3.05428	1.49966	-1.20701	0.718298	1.03189	0.974059	0.323737	-0.0849556	-0.333461	0.314698	-0.18782	0	0	-0.0428709	0.0394199	-0.0416663	0.177022	0.11382	0	0	0.024009	0.00844322	-0.234884	0.8437	-0.160827	-1.5708	0	0	0	0	0.512743	-0.208284	0.416861	1.03196	1.5708	0	0
15.08	3.06185	1.50038	-1.21352	0.716694	1.02668	0.973777	0.329297	-0.0931376	-0.336994	0.318271	-0.180126	0	0	-0.0380938	0.0442149	-0.0452862	0.17386	0.108521	0	0	0.0219117	0.0100949	-0.226264	0.847852	-0.183097	-1.5708	0	0	0	0	0.516689	-0.199979	0.418599	1.03809	1.5708	0	0
15.09	3.07236	1.50093	-1.22692	0.716765	1.02211	0.973717	0.335407	-0.0980249	-0.337548	0.322734	-0.171712	0	0	-0.0341749	0.0469021	-0.0484085	0.170791	0.102534	0	0	0.0216581	0.00928141	-0.223462	0.849782	-0.18315	-1.5708	0	0	0	0	0.518079	-0.199729	0.419016	1.0372	1.5708	0	0
15.1	3.08278	1.50114	-1.24006	0.716916	1.01771	0.973699	0.341056	-0.10293	-0.337818	0.328351	-0.161949	0	0	-0.0306446	0.0492424	-0.0512799	0.168042	0.0975015	0	0	0.0212834	0.00860026	-0.220859	0.8513	-0.183135	-1.5708	0	0	0	0	0.51897	-0.199753	0.419455	1.03725	1.5708	0	0
15.11	3.10213	1.50128	-1.26578	0.718785	1.01382	0.973937	0.346865	-0.104609	-0.33463	0.335077	-0.155299	0	0	-0.0280753	0.0498461	-0.0535262	0.165414	0.0920133	0	0	0.022583	0.0048907	-0.224565	0.850174	-0.160849	-1.5708	0	0	0	0	0.517096	-0.208127	0.418699	1.03073	1.5708	0	0
15.12	3.10843	1.50044	-1.27127	0.717311	1.00914	0.973851	0.350279	-0.112366	-0.33707	0.34372	-0.14364	0	0	-0.0250652	0.0535258	-0.0570449	0.162867	0.0872255	0	0	0.0200158	0.00735433	-0.215706	0.852508	-0.182679	-1.5708	0	0	0	0	0.519264	-0.200301	0.420262	1.03798	1.5708	0	0
15.13	3.12275	1.49984	-1.29208	0.719123	1.00548	0.974209	0.354281	-0.112645	-0.32978	0.352054	-0.13656	0	0	-0.0229553	0.0534295	-0.0589289	0.160818	0.0819316	0	0	0.0211299	0.00451693	-0.218903	0.850529	-0.160865	-1.5708	0	0	0	0	0.516876	-0.208308	0.419673	1.03118	1.5708	0	0
